# xmcd CD database file
#
# Track frame offsets:
#	150
#	13902
#	34891
#	56468
#	73390
#	90422
#	107016
#	127295
#	143429
#	163901
#	186415
#	208674
#
# Disc length: 3108 seconds
#
# Revision: 1
# Processed by: cddbd v1.4PL0 Copyright (c) Steve Scherf et al.
# Submitted via: CDex 1.51
#
DISCID=b40c220c
DTITLE=Pessi Levanto - Vuohi Kaipaa Kalahariin
DYEAR=2003
DGENRE=Jazz
TTITLE0=Kunpa Vuohi Tiet‰isit
TTITLE1=Kuolleet Her‰tk‰‰
TTITLE2=Eskimot Rakastaa Raakaa Lihaa
TTITLE3=Japaniin, Kuumiin L‰hteisiin
TTITLE4=Vuohi Kaipaa Kalahariin
TTITLE5=El Dorado, El Dorado
TTITLE6=Nepalissa Taivasalla
TTITLE7=Uzbekistanin Torilla
TTITLE8=Hyvin Vanha On Vuori
TTITLE9=Haitilaisen Taikakalun Voima Tehoaa
TTITLE10=J‰ttil‰isten Hampaat
TTITLE11=Balilla Juhlitaan Lauantaina
EXTD=YEAR: 2003
EXTT0=
EXTT1=
EXTT2=
EXTT3=
EXTT4=
EXTT5=
EXTT6=
EXTT7=
EXTT8=
EXTT9=
EXTT10=
EXTT11=
PLAYORDER=
